<?xml version="1.0" encoding="UTF-8"?>
<svg id="Layer_1" xmlns="http://www.w3.org/2000/svg" version="1.1" viewBox="0 0 344.76 457.58">
  <!-- Generator: Adobe Illustrator 30.5.1, SVG Export Plug-In . SVG Version: 2.1.4 Build 3)  -->
  <defs>
    <style>
      .st0 {
        fill: #50adfd;
      }
    </style>
  </defs>
  <path class="st0" d="M129.81,70.33c5.72-3.82,17.7,2.02,17.7,2.02,0,0,8.09-19.72-20.74-25.79,0,0-31.36,6.57-38.44,6.07,0,0,8.6,40.46,36.92,40.97s20.23-7.08,20.23-7.08l-10.62-7.08s-9.61-6.07-5.06-9.1Z"/>
  <path class="st0" d="M176.34,65.27s0-24.78-6.57-22.25-8.6,2.02-8.6,2.02c0,0-16.18-10.62-16.18-16.69S157.63-.98,163.7.03s25.79,27.31,26.8,33.89c1.01,6.57-.51,22.76-14.16,31.36Z"/>
  <path class="st0" d="M187.97,67.8s22.76-1.01,22.76,2.53-1.52,6.57-9.61,7.59-13.15,3.03-13.15,3.03c0,0,5.06,11.13,18.71,12.14s21.75-5.06,21.75-5.06l17.7-14.67,9.61-8.6s-19.72-17.7-33.38-18.21-34.39,8.09-34.39,21.24Z"/>
  <path class="st0" d="M189.99,92.58s.51,8.09,2.02,12.14,5.56,31.86,5.06,38.94c-.51,7.08,18.71,7.08,19.72,5.56,1.01-1.52,2.53-10.62,2.53-17.2s8.09-28.32-29.33-39.45Z"/>
  <path class="st0" d="M148.52,95.62s-4.55,10.11-4.55,18.21-2.53,32.37-6.07,35.91-20.74,6.07-20.74,6.07c0,0-3.54-34.9,2.02-44.51s21.75-20.23,29.33-15.68Z"/>
  <path class="st0" d="M228.86,298.95s-2.28-6.83-2.28-10.63-.76-3.42,0-6.07c.76-2.66-.76-2.28,1.14-4.55s3.04-3.04,3.04-6.45-4.55-11.77-4.55-11.77c0,0-.38-1.52,1.9-3.42,2.28-1.9,14.8-12.9,9.49-31.5,0,0-23.53,1.14-26.57,5.69v-5.69s-25.81,3.04-33.78,8.35c0,0,10.63-39.85,11.77-110.45,0,0,0-39.85-31.12-65.28l1.14,28.47s17.38,16.77,16.41,43.26c0,0-5.78-29.97-17.16-36.8,0,0-15.94,142.33-21.26,152.2l-3.8,3.04s-7.21,7.21-7.97,14.8c0,0-7.59,5.31-7.21,18.98,0,0-6.83,0-6.07,12.15.76,12.15,9.49,67.56,30.36,91.85,0,0-.38,3.42,19.74,4.55s33.02,1.52,34.54-8.73c1.52-10.25,4.93-27.33-7.97-51.62-10.32-19.42-15.53-21.13-17.21-21.03,2.92-.76,15.26-4.18,17.59-8.19,0,0,12.9,12.15,17.46,11.77,0,0-9.11,14.04-9.11,24.29s5.31,18.98,9.87,18.22c4.55-.76,22.39-28.09,25.05-35.3,2.66-7.21,3.8-7.97,2.28-12.15-1.52-4.18-5.69-7.97-5.69-7.97ZM233.82,231.31c1.34,12.44-9.08,21.18-9.08,21.18l-10.09-18.83c13.78-5.04,19.16-2.35,19.16-2.35ZM162.81,105.76c15.18,19.74,6.83,103.24,6.83,103.24,7.97-30.74,8.84-81.63,8.84-81.63-1.39-31.37-14.92-42.86-14.92-42.86l-.38-14.42c10.28,9.89,18.09,31.77,18.09,31.77,11.15,30.67-8.98,130.3-8.98,130.3-4.55.38-29.98,9.87-29.98,9.87,12.15-31.5,20.5-136.26,20.5-136.26ZM145.74,245.77c5.04-2.35,60.85-15.47,60.85-15.47,0,0,10.76,20.51,14.79,29.59,4.03,9.08,3.36,13.45,3.36,13.45,0,0-15.8-27.57-21.85-29.25-6.05-1.68-71.27,16.47-72.28,16.14-.67-7.73,10.09-12.1,15.13-14.46ZM125.9,266.95s58.16-16.14,67.58-17.48,11.09,0,18.49,11.09,11.43,30.93,11.43,30.93c0,0-17.82-25.55-24.88-27.57-7.06-2.02-72.28,15.13-75.98,15.13s3.36-12.1,3.36-12.1ZM227.43,312s-7.73,17.15-14.12,27.9c-6.39,10.76-7.4,7.73-7.4,7.73-11.77-12.44,7.73-35.3,7.73-35.3-6.05-2.69-24.21-21.18-24.21-21.18-3.7,6.39-18.49,11.77-23.53,13.45-5.04,1.68-1.68,5.72-1.68,5.72,17.48,5.72,26.56,35.3,27.9,50.43,1.34,15.13-1.01,19.84-5.04,23.2-4.03,3.36-23.87,2.35-35.3-1.01-11.43-3.36-12.78-13.11-12.78-13.11-20.17-39.67-21.18-70.6-20.51-79.34.67-8.74,66.57-21.52,75.64-21.52s14.46,14.46,25.89,29.25c11.43,14.79,7.4,13.78,7.4,13.78Z"/>
  <path class="st0" d="M256.49,128.31c-1.29-.74-2.98-.66-4.04.39-.01.01-.03.03-.04.04-1.48,1.5-1.03,4.01.71,5.19,38.29,25.93,63.49,69.82,63.49,119.65,0,79.69-64.4,144.29-143.85,144.29S28.91,333.27,28.91,253.58c0-49.37,24.74-92.92,62.44-118.93,1.86-1.28,2.15-3.99.44-5.47-.1-.09-.21-.18-.31-.26-1.09-.87-2.65-.92-3.86-.22C35.31,158.88,0,216.12,0,281.78c0,97.09,77.18,175.8,172.38,175.8s172.38-78.71,172.38-175.8c0-65.94-35.6-123.39-88.27-153.47ZM173.82,444.33v.03c-.17,0-.34-.01-.51-.02-.17,0-.34.01-.51.02v-.03c-90.63-.96-163.81-74.67-163.81-165.52,0-41.71,15.45-79.78,40.9-108.89-19.2,25.33-30.57,56.76-30.57,90.81,0,83.84,68.93,151.81,153.99,151.9,85.06-.1,153.99-68.07,153.99-151.9,0-34.05-11.37-65.48-30.57-90.81,25.45,29.11,40.9,67.19,40.9,108.89,0,90.85-73.18,164.57-163.81,165.52Z"/>
</svg>